<svg data-noselect="" viewBox="0 0 400 300" width="400" height="300" preserveAspectRatio="none" version="1.1" xmlns="http://www.w3.org/2000/svg" style="background: rgba(255, 255, 255, 0);"><defs></defs> <g id="shape_E1qHQQJlbR" transform="translate(135.99274810586147,159.69887149649858) rotate(0,84.5,77.61017312658232) scale(0.7574822709365507,0.7574822709365507)" filter="" style="cursor: move; opacity: 1;"><g><rect fill="rgba(0,0,0,0)" width="189" height="175.22034625316465" x="-10" y="-10"></rect><svg version="1.1" id="图层_1" xmlns="http://www.w3.org/2000/svg" xmlns:xlink="http://www.w3.org/1999/xlink" x="0px" y="0px" style="enable-background:new 0 0 283.465 226.772;" xml:space="preserve" viewBox="77.31130981445312 56.137596130371094 126.83738708496094 116.49552154541016" width="169" height="155.22034625316465" preserveAspectRatio="none" data-parent="shape_E1qHQQJlbR">
<g>
	<path style="" d="M201.493,168.812c-9.859-0.336-20.007,0.291-29.892,0.424c-11.098,0.15-22.208,0.134-33.31,0.177
		c-19.812,0.076-40.754-0.174-60.129,1.966c-1.332,0.147-1.003,1.04,0.316,1.055c20.998,0.229,42.115-0.267,63.145-0.147
		c19.425,0.111,41.653,1.171,60.588-1.077C205.295,170.843,204.431,168.912,201.493,168.812z" fill="#AED0EE"></path>
	<g>
		<path style="" d="M92.574,138.495c-1.773,0.328,0.791,11.254,4.968,12.664c4.176,1.409,90.489,2.558,94.009,0.42
			c3.521-2.138,3.655-11.333,3.338-12.513C194.572,137.885,97.895,137.511,92.574,138.495z" fill="#91cce8"></path>
		<path style="" d="M97.779,153.889c0,0,13.046,1.186,16.603,0.889c0,0,1.779,5.93,0,8.005
			c-1.779,2.075-13.639,1.186-15.417-0.593C97.186,160.412,97.779,153.889,97.779,153.889z" fill="#91cce8"></path>
		<path style="" d="M188.756,153.889c0,0-13.046,1.186-16.603,0.889c0,0-1.779,5.93,0,8.005s13.639,1.186,15.417-0.593
			C189.349,160.412,188.756,153.889,188.756,153.889z" fill="#91cce8"></path>
		<path style="" d="M193.866,111.205c-3.836-3.119-95.753-3.818-100.614,0.903c-4.005,3.89-1.066,22.036-0.174,23.179
			c0.893,1.143,97.462,1.76,101.512,0.53S197.702,114.324,193.866,111.205z M113.015,130.501
			c-8.441,6.512-18.644-10.731-8.923-14.47C116.633,111.207,121.456,123.99,113.015,130.501z M154.317,130.56
			c-8.446,0.851-17.571,1.685-25.938-0.054c-0.665-0.138-0.704-1.063,0-1.179c8.418-1.39,17.405-0.829,25.938-0.824
			C155.907,128.504,155.816,130.409,154.317,130.56z M154.317,124.557c-8.446,0.851-17.571,1.685-25.938-0.054
			c-0.665-0.138-0.704-1.063,0-1.179c8.418-1.39,17.405-0.829,25.938-0.824C155.907,122.501,155.816,124.405,154.317,124.557z
			 M154.317,118.553c-8.446,0.851-17.571,1.685-25.938-0.054c-0.665-0.138-0.704-1.063,0-1.179
			c8.418-1.39,17.405-0.829,25.938-0.824C155.907,116.497,155.816,118.401,154.317,118.553z M174.184,130.501
			c-8.441-6.512-3.618-19.294,8.923-14.47C192.828,119.77,182.625,137.013,174.184,130.501z" fill="#AED0EE"></path>
		<path style="" d="M98.446,107.711c0,0,5.337-25.35,8.228-29.575c2.891-4.225,10.007-5.337,12.453-5.559
			c2.446-0.222,49.81-2.001,54.035,2.891c4.225,4.892,12.23,31.799,12.23,31.799s-5.337-0.445-6.449-0.667
			c0,0-8.228-25.128-9.784-27.129c-1.557-2.001-52.034-2.224-55.147-0.445s-9.117,28.241-9.117,28.241
			S100.67,107.266,98.446,107.711z" fill="#AED0EE"></path>
		<path style="" d="M186.504,98.371c-2.12,0.707-1.557,6.893,1.557,8.005c3.113,1.112,12.008,1.557,13.342-3.336
			S193.175,96.148,186.504,98.371z" fill="#91cce8"></path>
		<path style="" d="M95.751,98.371c2.12,0.707,1.557,6.893-1.557,8.005c-3.113,1.112-12.008,1.557-13.342-3.336
			C79.518,98.149,89.08,96.148,95.751,98.371z" fill="#91cce8"></path>
		<path style="" d="M123.574,70.353c0,0,31.416-1.313,36.024,0.222c1.334,0.445-2.001-12.897-3.78-13.564
			c-1.779-0.667-26.239-1.334-28.463-0.445C125.13,57.456,122.24,69.464,123.574,70.353z" fill="#AED0EE"></path>
	</g>
</g>
</svg></g> <!----></g><g id="shape_DDtRSv8aAj" transform="translate(95.98211290958812,22.72446812809652) rotate(0,137.320556640625,52.55126953125) scale(0.7574822709365507,0.7574822709365507)" filter="" style="cursor: move; opacity: 1;"><g><svg xmlns="http://www.w3.org/2000/svg" version="1.1" xmlns:xlink="http://www.w3.org/1999/xlink" overflow="hidden" style="top:0; left: 0" width="274.64111328125" height="105.1025390625" viewBox="0 0 274.64111328125 105.1025390625" preserveAspectRatio="none" data-parent="shape_DDtRSv8aAj"><rect fill="rgba(0,0,0,0)" width="274.64111328125" height="105.1025390625"></rect> <rect opacity="0"></rect><g transform="translate(0 0)" data-width="269.64111328125"><path fill="#aed0ee" d="M23.91-26.07L23.91-28.71L39.22-28.71L39.22-28.71Q42.99-28.71 45.61-31.26L45.61-31.26L45.61-31.26Q48.23-33.80 48.23-38.45L48.23-38.45L48.23-38.45Q48.23-41.93 45.48-44.70L45.48-44.70L45.48-44.70Q42.74-47.46 39.22-47.46L39.22-47.46L16.59-47.46L16.59 0L13.95 0L13.95-50.10L39.22-50.10L39.22-50.10Q43.84-50.10 47.35-46.55L47.35-46.55L47.35-46.55Q50.87-42.99 50.87-38.45L50.87-38.45L50.87-38.45Q50.87-32.85 47.46-29.46L47.46-29.46L47.46-29.46Q44.06-26.07 39.22-26.07L39.22-26.07L23.91-26.07ZM23.91-20.80L23.91-23.44L39.22-23.44L39.22-23.44Q43.03-23.44 46.27-25.29L46.27-25.29L46.27-25.29Q49.51-27.14 51.51-30.62L51.51-30.62L51.51-30.62Q53.50-34.09 53.50-38.45L53.50-38.45L53.50-38.45Q53.50-44.09 49.20-48.41L49.20-48.41L49.20-48.41Q44.90-52.73 39.22-52.73L39.22-52.73L11.32-52.73L11.32 0L8.68 0L8.68-55.37L39.22-55.37L39.22-55.37Q43.65-55.37 47.57-53.03L47.57-53.03L47.57-53.03Q51.49-50.68 53.81-46.77L53.81-46.77L53.81-46.77Q56.14-42.85 56.14-38.45L56.14-38.45L56.14-38.45Q56.14-33.47 53.80-29.39L53.80-29.39L53.80-29.39Q51.45-25.31 47.59-23.05L47.59-23.05L47.59-23.05Q43.73-20.80 39.22-20.80L39.22-20.80L23.91-20.80ZM23.91-15.53L23.91-18.16L39.22-18.16L39.22-18.16Q43.14-18.16 46.73-19.72L46.73-19.72L46.73-19.72Q50.32-21.28 52.97-23.93L52.97-23.93L52.97-23.93Q55.63-26.59 57.20-30.38L57.20-30.38L57.20-30.38Q58.78-34.17 58.78-38.45L58.78-38.45L58.78-38.45Q58.78-43.58 56.10-48.10L56.10-48.10L56.10-48.10Q53.43-52.62 48.91-55.32L48.91-55.32L48.91-55.32Q44.38-58.01 39.22-58.01L39.22-58.01L6.04-58.01L6.04 0L3.41 0L3.41-60.64L39.22-60.64L39.22-60.64Q45.08-60.64 50.21-57.59L50.21-57.59L50.21-57.59Q55.33-54.53 58.37-49.40L58.37-49.40L58.37-49.40Q61.41-44.27 61.41-38.45L61.41-38.45L61.41-38.45Q61.41-33.25 59.62-28.88L59.62-28.88L59.62-28.88Q57.82-24.50 54.79-21.61L54.79-21.61L54.79-21.61Q51.75-18.71 47.72-17.12L47.72-17.12L47.72-17.12Q43.69-15.53 39.22-15.53L39.22-15.53L23.91-15.53ZM21.86-42.19L21.86 0L19.23 0L19.23-44.82L39.22-44.82L39.22-44.82Q41.82-44.82 43.71-42.92L43.71-42.92L43.71-42.92Q45.59-41.02 45.59-38.45L45.59-38.45L45.59-38.45Q45.59-31.35 39.22-31.35L39.22-31.35L23.91-31.35L23.91-33.98L39.22-33.98L39.22-33.98Q40.98-33.98 41.97-34.97L41.97-34.97L41.97-34.97Q42.96-35.96 42.96-38.45L42.96-38.45L42.96-38.45Q42.96-40.06 41.88-41.13L41.88-41.13L41.88-41.13Q40.80-42.19 39.22-42.19L39.22-42.19L21.86-42.19Z" transform="translate(0 59.94873046875)"></path><path fill="#aed0ee" d="M19.23 0L19.23-52.73L21.86-52.73L21.86 0L19.23 0ZM13.95 0L13.95-52.73L16.59-52.73L16.59 0L13.95 0ZM8.68 0L8.68-52.73L11.32-52.73L11.32 0L8.68 0ZM3.41 0L3.41-52.73L6.04-52.73L6.04 0L3.41 0Z" transform="translate(63.7939453125 59.94873046875)"></path><path fill="#aed0ee" d="M45.01-52.73L45.01-21.28L42.37-26.07L42.37-52.73L45.01-52.73ZM50.28-52.73L50.28-12.16L47.64-16.63L47.64-52.73L50.28-52.73ZM13.95 0L13.95-31.46L16.59-26.66L16.59 0L13.95 0ZM8.68 0L8.68-40.94L11.32-36.11L11.32 0L8.68 0ZM40.14 0L9.59-52.73L12.67-52.73L43.21 0L40.14 0ZM46.29 0L15.82-52.73L18.93-52.73L49.44 0L46.29 0ZM52.44 0L22.01-52.73L25.09-52.73L52.92-4.58L52.92-52.73L55.55-52.73L55.55 0L52.44 0ZM33.95 0L6.04-48.19L6.04 0L3.41 0L3.41-52.73L6.56-52.73L36.99 0L33.95 0Z" transform="translate(89.1357421875 59.94873046875)"></path><path fill="#aed0ee" d="M37.21-15.82L19.23-15.82L19.23-44.82L19.23-44.82Q19.23-44.82 37.21-44.82L37.21-44.82L37.21-44.82Q41.56-44.82 44.70-40.56L44.70-40.56L44.70-40.56Q47.83-36.29 47.83-30.32L47.83-30.32L47.83-30.32Q47.83-24.32 44.70-20.07L44.70-20.07L44.70-20.07Q41.56-15.82 37.21-15.82L37.21-15.82ZM21.86-42.19L21.86-18.46L37.21-18.46L37.21-18.46Q40.47-18.46 42.79-21.94L42.79-21.94L42.79-21.94Q45.12-25.42 45.12-30.32L45.12-30.32L45.12-30.32Q45.12-35.27 42.79-38.73L42.79-38.73L42.79-38.73Q40.47-42.19 37.21-42.19L37.21-42.19L21.86-42.19ZM16.59-47.46L16.59-13.18L37.21-13.18L37.21-13.18Q42.66-13.18 46.60-18.22L46.60-18.22L46.60-18.22Q50.54-23.25 50.54-30.32L50.54-30.32L50.54-30.32Q50.54-34.97 48.72-38.93L48.72-38.93L48.72-38.93Q46.91-42.88 43.85-45.17L43.85-45.17L43.85-45.17Q40.80-47.46 37.21-47.46L37.21-47.46L16.59-47.46ZM37.21-10.55L13.95-10.55L13.95-50.10L37.21-50.10L37.21-50.10Q41.49-50.10 45.19-47.46L45.19-47.46L45.19-47.46Q48.89-44.82 51.07-40.26L51.07-40.26L51.07-40.26Q53.25-35.71 53.25-30.32L53.25-30.32L53.25-30.32Q53.25-24.98 51.07-20.40L51.07-20.40L51.07-20.40Q48.89-15.82 45.19-13.18L45.19-13.18L45.19-13.18Q41.49-10.55 37.21-10.55L37.21-10.55ZM11.32-52.73L11.32-7.91L37.21-7.91L37.21-7.91Q42.22-7.91 46.53-10.91L46.53-10.91L46.53-10.91Q50.83-13.92 53.39-19.08L53.39-19.08L53.39-19.08Q55.96-24.24 55.96-30.32L55.96-30.32L55.96-30.32Q55.96-36.36 53.39-41.55L53.39-41.55L53.39-41.55Q50.83-46.73 46.51-49.73L46.51-49.73L46.51-49.73Q42.19-52.73 37.21-52.73L37.21-52.73L11.32-52.73ZM37.21-5.27L8.68-5.27L8.68-55.37L37.21-55.37L37.21-55.37Q42.92-55.37 47.86-52.02L47.86-52.02L47.86-52.02Q52.81-48.67 55.74-42.88L55.74-42.88L55.74-42.88Q58.67-37.10 58.67-30.32L58.67-30.32L58.67-30.32Q58.67-23.55 55.74-17.76L55.74-17.76L55.74-17.76Q52.81-11.98 47.86-8.62L47.86-8.62L47.86-8.62Q42.92-5.27 37.21-5.27L37.21-5.27ZM6.04-58.01L6.04-2.64L37.21-2.64L37.21-2.64Q42.00-2.64 46.47-4.83L46.47-4.83L46.47-4.83Q50.94-7.03 54.20-10.73L54.20-10.73L54.20-10.73Q57.46-14.43 59.42-19.57L59.42-19.57L59.42-19.57Q61.38-24.72 61.38-30.32L61.38-30.32L61.38-30.32Q61.38-35.93 59.42-41.05L59.42-41.05L59.42-41.05Q57.46-46.18 54.20-49.90L54.20-49.90L54.20-49.90Q50.94-53.61 46.47-55.81L46.47-55.81L46.47-55.81Q42.00-58.01 37.21-58.01L37.21-58.01L6.04-58.01ZM37.21 0L37.21 0L3.41 0L3.41-60.64L37.21-60.64L37.21-60.64Q44.35-60.64 50.54-56.58L50.54-56.58L50.54-56.58Q56.73-52.51 60.41-45.52L60.41-45.52L60.41-45.52Q64.09-38.53 64.09-30.32L64.09-30.32L64.09-30.32Q64.09-24.17 61.91-18.55L61.91-18.55L61.91-18.55Q59.73-12.93 56.10-8.86L56.10-8.86L56.10-8.86Q52.48-4.80 47.52-2.40L47.52-2.40L47.52-2.40Q42.55 0 37.21 0Z" transform="translate(148.1689453125 59.94873046875)"></path><path fill="#aed0ee" d="M34.68-17.80L51.27-52.73L53.91-52.73L37.32-17.80L37.32 0L34.68 0L34.68-17.80ZM29.41-17.80L46.00-52.73L48.63-52.73L32.04-17.80L32.04 0L29.41 0L29.41-17.80ZM24.13-17.80L40.72-52.73L43.36-52.73L26.77-17.80L26.77 0L24.13 0L24.13-17.80ZM20.14-20.47L35.45-52.73L38.09-52.73L21.50-17.80L21.50 0L18.86 0L18.86-17.80L1.17-52.73L3.81-52.73L20.14-20.47ZM20.87-24.98L6.48-52.73L9.12-52.73L22.19-27.87L20.87-24.98ZM23.47-30.76L11.76-52.73L14.43-52.73L24.83-33.65L23.47-30.76ZM26.15-36.51L17.10-52.73L19.74-52.73L27.47-39.40L26.15-36.51Z" transform="translate(214.63623046875 59.94873046875)"></path></g></svg></g> <!----></g><g id="shape_rJAlEHSNft" transform="translate(140.91638286694905,62.9108002129706) rotate(0,78,28.525) scale(0.7574822709365507,0.7574822709365507)" filter="" style="cursor: move; opacity: 1;"><g><svg xmlns="http://www.w3.org/2000/svg" version="1.1" xmlns:xlink="http://www.w3.org/1999/xlink" overflow="hidden" style="top:0; left: 0" width="156" height="57.05" viewBox="0 0 156 57.05" preserveAspectRatio="none" data-parent="shape_rJAlEHSNft"><rect fill="rgba(0,0,0,0)" width="156" height="57.05"></rect> <rect opacity="0"></rect><g transform="translate(0 0)" data-width="150"><path fill="#91cce8" d="M29.75-13L28.20-3.20L20.90-3.20L21.80-4.15L23.25-13L20.05-13L20.05-17.25L21.60-16.45L23.80-16.45L25.15-24.90L21.25-24.90L21.25-29.15L22.85-28.35L27.30-28.35L25.45-31.80L24.15-32.80L31.35-32.80L33.70-28.35L36.90-28.35L39.30-32.80L46.50-32.80L45.15-31.80L43.25-28.35L46.90-28.35L46.90-23.90L46.90-23.90Q46.70-24.50 46.15-24.70L46.15-24.70L46.15-24.70Q45.60-24.90 45.15-24.90L45.15-24.90L43.45-24.90L43.45-16.45L48.35-16.45L48.35-12L48.35-12Q48.15-12.65 47.58-12.83L47.58-12.83L47.58-12.83Q47-13 46.55-13L46.55-13L43.45-13L43.45-3.20L35.80-3.20L37.05-4.55L37.05-13L29.75-13ZM16.40-28.35L16.40-23.90L16.40-23.90Q16.20-24.50 15.63-24.70L15.63-24.70L15.63-24.70Q15.05-24.90 14.65-24.90L14.65-24.90L12.20-24.90L12.20-16L14.95-16.55L16.40-17.95L16.40-12.15L12.20-11.35L12.20-3.20L4.50-3.20L5.75-4.55L5.75-10.10L3.25-9.65L1.65-8.55L1.65-13.85L5.75-14.65L5.75-24.90L1.65-24.90L1.65-29.15L3.20-28.35L5.75-28.35L5.75-31.80L4.90-32.80L12.20-32.80L12.20-28.35L16.40-28.35ZM31.65-24.90L30.30-16.45L37.05-16.45L37.05-24.90L31.65-24.90Z" transform="translate(0 42.95)"></path><path fill="#91cce8" d="M38.20-22.75L39.40-25.55L39-26.65L45.55-26.65L43.90-22.75L48.30-22.75L48.30-3.15L41.15-3.15L42.30-4.50L42.30-19.55L23.45-19.55L23.50-3.15L17.50-3.15L17.45-21.25L16.55-22.75L22-22.75L20.40-26.65L26.95-26.65L26.55-25.55L27.70-22.75L38.20-22.75ZM40.75-16.65L40.75-12.95L40.75-12.95Q40.55-13.55 39.98-13.75L39.98-13.75L39.98-13.75Q39.40-13.95 38.95-13.95L38.95-13.95L35.50-13.95L35.50-12.15L39.90-12.15L39.90-3.85L25.80-3.85L25.80-11L25.20-12.15L30.40-12.15L30.40-13.95L24.85-14L24.85-17.30L26.40-16.65L30.40-16.65L30.40-17.15L29.70-18.40L35.50-18.40L35.50-16.65L40.75-16.65ZM48.30-30.85L48.30-26.85L48.30-26.85Q48.10-27.45 47.53-27.65L47.53-27.65L47.53-27.65Q46.95-27.85 46.50-27.85L46.50-27.85L16.95-27.85L16.95-31.70L18.55-30.85L30-30.85L30-31.90L29.10-32.85L36-32.85L36-30.85L48.30-30.85ZM11.85-32.65L14.95-24.95L9.30-24.95L12.25-17.85L5.55-17.85L2.75-24.50L1.70-25.50L8-25.50L5.45-31.65L4.40-32.65L11.85-32.65ZM14.90-14.90L10.15-3.10L3.40-3.10L7.75-13.90L6.45-14.90L14.90-14.90ZM36.15-6.15L36.15-9.70L29.70-9.70L29.70-6.15L36.15-6.15Z" transform="translate(50 42.95)"></path><path fill="#91cce8" d="M38.20-22.75L39.40-25.55L39-26.65L45.55-26.65L43.90-22.75L48.30-22.75L48.30-3.15L41.15-3.15L42.30-4.50L42.30-19.55L23.45-19.55L23.50-3.15L17.50-3.15L17.45-21.25L16.55-22.75L22-22.75L20.40-26.65L26.95-26.65L26.55-25.55L27.70-22.75L38.20-22.75ZM40.75-16.65L40.75-12.95L40.75-12.95Q40.55-13.55 39.98-13.75L39.98-13.75L39.98-13.75Q39.40-13.95 38.95-13.95L38.95-13.95L35.50-13.95L35.50-12.15L39.90-12.15L39.90-3.85L25.80-3.85L25.80-11L25.20-12.15L30.40-12.15L30.40-13.95L24.85-14L24.85-17.30L26.40-16.65L30.40-16.65L30.40-17.15L29.70-18.40L35.50-18.40L35.50-16.65L40.75-16.65ZM48.30-30.85L48.30-26.85L48.30-26.85Q48.10-27.45 47.53-27.65L47.53-27.65L47.53-27.65Q46.95-27.85 46.50-27.85L46.50-27.85L16.95-27.85L16.95-31.70L18.55-30.85L30-30.85L30-31.90L29.10-32.85L36-32.85L36-30.85L48.30-30.85ZM11.85-32.65L14.95-24.95L9.30-24.95L12.25-17.85L5.55-17.85L2.75-24.50L1.70-25.50L8-25.50L5.45-31.65L4.40-32.65L11.85-32.65ZM14.90-14.90L10.15-3.10L3.40-3.10L7.75-13.90L6.45-14.90L14.90-14.90ZM36.15-6.15L36.15-9.70L29.70-9.70L29.70-6.15L36.15-6.15Z" transform="translate(100 42.95)"></path></g></svg></g> <!----></g>  </svg>