<svg data-noselect="" viewBox="0 0 400 300" width="400" height="300" preserveAspectRatio="none" version="1.1" xmlns="http://www.w3.org/2000/svg" style="background: rgba(255, 255, 255, 0);"><defs></defs> <g id="shape_ShXFCvIeKE" transform="translate(97.36842105263159,52.63157894736842) rotate(0,58.5,55.5) scale(1.7543859649122806,1.7543859649122806)" filter="" style="cursor: move; opacity: 1;"><g><rect fill="rgba(0,0,0,0)" width="137" height="131" x="-10" y="-10"></rect><svg xmlns="http://www.w3.org/2000/svg" xmlns:xlink="http://www.w3.org/1999/xlink" shape-rendering="auto" text-rendering="auto" contentscripttype="text/ecmascript" color-rendering="auto" color-interpolation="auto" xml:space="preserve" preserveAspectRatio="none" image-rendering="auto" zoomAndPan="magnify" version="1.1" contentstyletype="text/css" x="0px" enable-background="new 0 0 124.081 120.336" y="0px" viewBox="3 3 117.16253662109375 111.33700561523438" width="117" height="111" data-parent="shape_ShXFCvIeKE">
 <g fill="#356BB3" id="layer5">
  <path d="M82.081,3c24.341,0,41.329,20.149,37.557,44.48c-3.772,24.329-27.008,44.481-51.349,44.481H52.253   l-3.469,22.375H35.561c2.806-18.099,2.713-17.5,5.519-35.598h29.259c17.054,0,33.482-14.194,36.127-31.258   c2.645-17.065-9.38-31.256-26.436-31.256c-18.568,0-58.462,0-77.03,0L5.051,3C23.618,3,63.513,3,82.081,3z"></path>
 </g>
 <g fill="#64B0D4" id="layer4">
  <path d="M22.57,27.55c17.614,0,35.229,0,52.843,0c10.958,0,18.54,8.969,16.841,19.93   c-1.694,10.923-12.09,19.931-23.021,19.931H42.835l2.051-13.223h26.397c3.677,0,7.175-3.021,7.747-6.707   c0.572-3.689-1.981-6.707-5.668-6.707c-13.207,0-26.413,0-39.62,0l-11.405,73.563H9.115C14.566,79.176,17.122,62.71,22.57,27.55z"></path>
 </g>
 <!--Copyright (c) Logomaker.com.cn  @2017-01-11-->
</svg></g> <!----></g>  <!----></svg>