<svg data-noselect="" viewBox="0 0 400 300" width="400" height="300" preserveAspectRatio="none" version="1.1" xmlns="http://www.w3.org/2000/svg" style="background: rgba(255, 255, 255, 0);"><defs></defs> <g id="shape_rvPqcIGgf1" transform="translate(128.35432045158484,34.389926183239275) rotate(0,62.5,100.85227272727266) scale(1.1463308727746424,1.1463308727746424)" filter="" style="cursor: move; opacity: 1;"><g><rect fill="rgba(0,0,0,0)" width="145" height="221.70454545454533" x="-10" y="-10"></rect><svg version="1.1" id="图层_1" xmlns="http://www.w3.org/2000/svg" xmlns:xlink="http://www.w3.org/1999/xlink" x="0px" y="0px" style="enable-background:new 0 0 283.465 226.772;" xml:space="preserve" viewBox="97.64307403564453 41.938148498535156 88.17321014404297 142.89385986328125" width="125" height="201.70454545454533" preserveAspectRatio="none" data-parent="shape_rvPqcIGgf1">
<g>
	<g>
		<path style="" d="M103.602,184.832c-1.425,0-2.637-1.091-2.761-2.537c-2.161-25.15-3.995-73.629-2.842-85.527
			c2.034-20.985,10.219-36.574,25.023-47.656c8.954-6.702,21.464-8.876,33.463-5.81c11.867,3.031,21.337,10.609,25.982,20.791
			c6.786,14.873,3.517,37.481-12.163,47.43c-13.415,8.507-31.906,6.609-42.101-4.327c-7.111-7.629-9.796-19.975-6.531-30.023
			c2.058-6.338,7.421-11.976,13.997-14.714c6.023-2.506,12.317-2.381,17.726,0.351c8.811,4.454,15.411,16.348,10.794,26.292
			c-2.488,5.366-7.812,8.992-13.245,9.023c-4.561,0.043-8.544-2.592-10.737-7.183c-0.66-1.382-0.075-3.038,1.307-3.698
			c1.381-0.661,3.038-0.076,3.698,1.307c1.259,2.635,3.216,4.026,5.663,4.026c0.012,0,0.024,0,0.036,0
			c3.276-0.018,6.666-2.408,8.245-5.811c3.192-6.874-1.731-15.703-8.265-19.005c-3.938-1.992-8.589-2.057-13.091-0.181
			c-5.123,2.132-9.282,6.464-10.853,11.305c-2.628,8.09-0.395,18.405,5.312,24.527c8.433,9.046,23.836,10.551,35.072,3.426
			c13.042-8.276,15.784-27.957,10.088-40.443c-3.944-8.646-12.075-15.104-22.307-17.718c-10.387-2.653-21.144-0.83-28.766,4.876
			c-13.483,10.095-20.95,24.405-22.825,43.751c-1.028,10.603,0.568,57.996,2.847,84.519c0.131,1.526-1,2.87-2.526,3
			C103.762,184.828,103.682,184.832,103.602,184.832z" fill="#0C6BB0"></path>
	</g>
</g>
</svg></g> <!----></g>  <!----></svg>