<svg data-noselect="" viewBox="0 0 400 300" width="400" height="300" preserveAspectRatio="none" version="1.1" xmlns="http://www.w3.org/2000/svg" style="background: rgba(255, 255, 255, 0);"><defs></defs> <g id="shape_MdslCz1Tot" transform="translate(92.61363636363636,51.13636363636364) rotate(0,63,58) scale(1.7045454545454546,1.7045454545454546)" filter="" style="cursor: move; opacity: 1;"><g><rect fill="rgba(0,0,0,0)" width="146" height="136" x="-10" y="-10"></rect><svg version="1.1" id="图层_1" xmlns="http://www.w3.org/2000/svg" xmlns:xlink="http://www.w3.org/1999/xlink" x="0px" y="0px" style="enable-background:new 0 0 283.465 226.772;" xml:space="preserve" viewBox="77.31130981445312 56.137596130371094 126.83738708496094 116.49552154541016" width="126" height="116" preserveAspectRatio="none" data-parent="shape_MdslCz1Tot">
<g>
	<path style="" d="M201.493,168.812c-9.859-0.336-20.007,0.291-29.892,0.424c-11.098,0.15-22.208,0.134-33.31,0.177
		c-19.812,0.076-40.754-0.174-60.129,1.966c-1.332,0.147-1.003,1.04,0.316,1.055c20.998,0.229,42.115-0.267,63.145-0.147
		c19.425,0.111,41.653,1.171,60.588-1.077C205.295,170.843,204.431,168.912,201.493,168.812z" fill="#D3EDFB"></path>
	<g>
		<path style="" d="M92.574,138.495c-1.773,0.328,0.791,11.254,4.968,12.664c4.176,1.409,90.489,2.558,94.009,0.42
			c3.521-2.138,3.655-11.333,3.338-12.513C194.572,137.885,97.895,137.511,92.574,138.495z" fill="#1D2088"></path>
		<path style="" d="M97.779,153.889c0,0,13.046,1.186,16.603,0.889c0,0,1.779,5.93,0,8.005
			c-1.779,2.075-13.639,1.186-15.417-0.593C97.186,160.412,97.779,153.889,97.779,153.889z" fill="#1D2088"></path>
		<path style="" d="M188.756,153.889c0,0-13.046,1.186-16.603,0.889c0,0-1.779,5.93,0,8.005s13.639,1.186,15.417-0.593
			C189.349,160.412,188.756,153.889,188.756,153.889z" fill="#1D2088"></path>
		<path style="" d="M193.866,111.205c-3.836-3.119-95.753-3.818-100.614,0.903c-4.005,3.89-1.066,22.036-0.174,23.179
			c0.893,1.143,97.462,1.76,101.512,0.53S197.702,114.324,193.866,111.205z M113.015,130.501
			c-8.441,6.512-18.644-10.731-8.923-14.47C116.633,111.207,121.456,123.99,113.015,130.501z M154.317,130.56
			c-8.446,0.851-17.571,1.685-25.938-0.054c-0.665-0.138-0.704-1.063,0-1.179c8.418-1.39,17.405-0.829,25.938-0.824
			C155.907,128.504,155.816,130.409,154.317,130.56z M154.317,124.557c-8.446,0.851-17.571,1.685-25.938-0.054
			c-0.665-0.138-0.704-1.063,0-1.179c8.418-1.39,17.405-0.829,25.938-0.824C155.907,122.501,155.816,124.405,154.317,124.557z
			 M154.317,118.553c-8.446,0.851-17.571,1.685-25.938-0.054c-0.665-0.138-0.704-1.063,0-1.179
			c8.418-1.39,17.405-0.829,25.938-0.824C155.907,116.497,155.816,118.401,154.317,118.553z M174.184,130.501
			c-8.441-6.512-3.618-19.294,8.923-14.47C192.828,119.77,182.625,137.013,174.184,130.501z" fill="#D3EDFB"></path>
		<path style="" d="M98.446,107.711c0,0,5.337-25.35,8.228-29.575c2.891-4.225,10.007-5.337,12.453-5.559
			c2.446-0.222,49.81-2.001,54.035,2.891c4.225,4.892,12.23,31.799,12.23,31.799s-5.337-0.445-6.449-0.667
			c0,0-8.228-25.128-9.784-27.129c-1.557-2.001-52.034-2.224-55.147-0.445s-9.117,28.241-9.117,28.241
			S100.67,107.266,98.446,107.711z" fill="#D3EDFB"></path>
		<path style="" d="M186.504,98.371c-2.12,0.707-1.557,6.893,1.557,8.005c3.113,1.112,12.008,1.557,13.342-3.336
			S193.175,96.148,186.504,98.371z" fill="#1D2088"></path>
		<path style="" d="M95.751,98.371c2.12,0.707,1.557,6.893-1.557,8.005c-3.113,1.112-12.008,1.557-13.342-3.336
			C79.518,98.149,89.08,96.148,95.751,98.371z" fill="#1D2088"></path>
		<path style="" d="M123.574,70.353c0,0,31.416-1.313,36.024,0.222c1.334,0.445-2.001-12.897-3.78-13.564
			c-1.779-0.667-26.239-1.334-28.463-0.445C125.13,57.456,122.24,69.464,123.574,70.353z" fill="#D3EDFB"></path>
	</g>
</g>
</svg></g> <!----></g>  <!----></svg>